<svg viewBox="0 0 800 600" xmlns="http://www.w3.org/2000/svg">
    <!-- Фон -->
    <rect width="800" height="600" fill="#4F46E5" opacity="0.1"/>

    <!-- Основное дерево -->
    <g transform="translate(400,500)">
        <!-- Ствол -->
        <path d="M-30,-200 C-30,-250 30,-250 30,-200 L0,0 Z" fill="#6366F1"/>

        <!-- Ветви -->
        <path d="M0,-180 C-100,-180 -200,-120 -180,-60" stroke="#6366F1" fill="none" stroke-width="8"/>
        <path d="M0,-180 C100,-180 200,-120 180,-60" stroke="#6366F1" fill="none" stroke-width="8"/>

        <!-- Круги для членов семьи -->
        <circle cx="0" cy="-180" r="30" fill="#818CF8"/>
        <circle cx="-180" cy="-60" r="25" fill="#818CF8"/>
        <circle cx="180" cy="-60" r="25" fill="#818CF8"/>

        <!-- Соединительные линии -->
        <line x1="-150" y1="-60" x2="-90" y2="-60" stroke="#6366F1" stroke-width="4"/>
        <line x1="150" y1="-60" x2="90" y2="-60" stroke="#6366F1" stroke-width="4"/>

        <!-- Декоративные элементы -->
        <circle cx="-120" cy="-120" r="15" fill="#A5B4FC" opacity="0.6"/>
        <circle cx="120" cy="-120" r="15" fill="#A5B4FC" opacity="0.6"/>
        <circle cx="0" cy="-240" r="15" fill="#A5B4FC" opacity="0.6"/>
    </g>

    <!-- Декоративные круги -->
    <g>
        <circle cx="100" cy="100" r="20" fill="#818CF8" opacity="0.3"/>
        <circle cx="700" cy="500" r="25" fill="#818CF8" opacity="0.3"/>
        <circle cx="200" cy="400" r="15" fill="#818CF8" opacity="0.3"/>
        <circle cx="600" cy="200" r="18" fill="#818CF8" opacity="0.3"/>
    </g>
</svg>